<?xml version="1.0" encoding="utf-8"?>
<!-- Generator: Adobe Illustrator 15.1.0, SVG Export Plug-In  -->
<!DOCTYPE svg PUBLIC "-//W3C//DTD SVG 1.1//EN" "http://www.w3.org/Graphics/SVG/1.1/DTD/svg11.dtd" [
	<!ENTITY ns_flows "http://ns.adobe.com/Flows/1.0/">
]>
<svg version="1.1"
	 xmlns="http://www.w3.org/2000/svg" xmlns:xlink="http://www.w3.org/1999/xlink" xmlns:a="http://ns.adobe.com/AdobeSVGViewerExtensions/3.0/"
	 x="0px" y="0px" width="1000px" height="1000px" viewBox="-27.019 -46.405 1000 1000"
	 enable-background="new -27.019 -46.405 1000 1000" xml:space="preserve">
<defs>
</defs>
<path fill="#FFFFFF" stroke="#231F20" stroke-width="4" stroke-miterlimit="10" d="M173.772,874.375
	c-51.852-20.938-93.148-51.938-124-92.938C18.936,740.453,3.038,690.219,2.038,630.781c-0.32-17.578,1.398-39.766,5.109-66.422
	c12.711-81.203,26.969-153.609,42.625-217.203C76.124,233.375,125.1,147.453,196.397,89.203C267.702,31.078,364.42,2,486.468,2
	c64.406,0,122.688,10.906,174.922,32.609c52.219,21.844,93.766,53.844,124.609,96.078s46.813,93.063,47.906,152.516
	c0.234,17.516-1.484,38.891-5.266,63.953c-10.547,67.797-24.656,140.188-42.563,217.203
	c-26.438,114.547-75.406,200.125-146.703,256.594c-71.281,56.5-168.016,84.719-290.141,84.719
	C283.975,905.672,225.538,895.203,173.772,874.375z M478.812,677.891c30.922-26.422,52.609-66.719,65.016-121.125
	c17.047-76.078,30.438-144.766,40.375-205.813c3.031-16.766,4.344-33.969,4.109-51.469
	c-1.328-72.859-39.984-109.203-116.079-109.203c-45.188,0-83.172,13.172-114.094,39.531s-52.625,66.719-65.031,121.141
	c-13.328,52.672-27.117,121.344-41.531,205.813c-3.102,16.75-4.414,33.969-4.109,51.484
	c1.242,72.844,40.383,109.172,117.266,109.172C409.905,717.422,447.952,704.188,478.812,677.891z"/>
<path fill="#FFB773" stroke="#231F20" stroke-width="4" stroke-miterlimit="10" d="M282.428,874.375
	c-51.773-20.938-93.086-51.938-123.922-92.938c-30.766-40.984-46.734-91.219-47.82-150.656c-0.313-17.578,1.398-39.766,5.109-66.422
	c12.875-81.203,26.977-153.609,42.625-217.203c26.508-113.781,75.328-199.703,146.625-257.953C376.358,31.078,473.139,2,595.218,2
	C659.53,2,717.89,12.906,770.124,34.609c52.219,21.844,93.766,53.844,124.531,96.078c30.828,42.234,46.875,93.063,47.875,152.516
	c0.344,17.516-1.375,38.891-5.094,63.953c-10.547,67.797-24.797,140.188-42.625,217.203
	c-26.516,114.547-75.328,200.125-146.703,256.594c-71.375,56.5-168.094,84.719-290.157,84.719
	C392.702,905.672,334.186,895.203,282.428,874.375z M587.608,677.891c30.844-26.422,52.547-66.719,64.953-121.125
	c17.047-76.078,30.516-144.766,40.297-205.813c3.109-16.766,4.484-33.969,4.188-51.469
	c-1.328-72.859-39.984-109.203-116.094-109.203c-45.188,0-83.25,13.172-114.094,39.531c-30.922,26.359-52.531,66.719-65,121.141
	c-13.266,52.672-27.219,121.344-41.547,205.813c-3.016,16.75-4.422,33.969-4.109,51.484c1.25,72.844,40.313,109.172,117.25,109.172
	C518.64,717.422,556.608,704.188,587.608,677.891z"/>
</svg>
