<?xml version="1.0" encoding="utf-8"?>
<!-- Generator: Adobe Illustrator 15.1.0, SVG Export Plug-In  -->
<!DOCTYPE svg PUBLIC "-//W3C//DTD SVG 1.1//EN" "http://www.w3.org/Graphics/SVG/1.1/DTD/svg11.dtd" [
	<!ENTITY ns_flows "http://ns.adobe.com/Flows/1.0/">
]>
<svg version="1.1"
	 xmlns="http://www.w3.org/2000/svg" xmlns:xlink="http://www.w3.org/1999/xlink" xmlns:a="http://ns.adobe.com/AdobeSVGViewerExtensions/3.0/"
	 x="0px" y="0px" width="1000px" height="1000px" viewBox="-14.991 -58.291 1000 1000"
	 enable-background="new -14.991 -58.291 1000 1000" xml:space="preserve">
<defs>
</defs>
<path fill="#FFFFFF" stroke="#231F20" stroke-width="4" stroke-miterlimit="10" d="M7.898,871.797
	c-5.125-5.813-6.906-13.406-5.359-22.656L161.398,34.625c1.5-9.172,5.969-16.953,13.422-23.219C182.258,5.125,190.477,2,199.773,2
	h369.969c89.453,0,159.828,17.406,211.031,52.109c51.156,34.719,77.344,83.391,78.422,146.172
	c0.234,14.266-1.563,31.859-5.328,52.688c-8.453,41.828-26.047,77.047-52.719,105.469c-26.656,28.453-55.016,49.391-84.844,62.719
	c26.109,13.469,47.328,33.141,63.781,59.063c16.25,25.859,24.797,55.641,25.328,89.109c0.219,9.125-1.313,23.859-4.266,43.859
	c-16.891,87.109-54.406,153.359-112.516,199c-58.125,45.578-139.5,68.375-244.047,68.375H29.43
	C20.227,880.563,13.086,877.609,7.898,871.797z M432.898,711.156c31.75,0,58.969-9.625,81.672-28.922
	C537.196,663,550.836,640,555.352,613.188c2.313-10,3.391-19.203,3.25-27.609c-0.344-21.672-7.766-39.047-22.188-52.047
	c-14.469-12.984-35.953-19.484-64.313-19.484H304.023l-39.219,197.109H432.898z M490.555,349.688
	c35.109,0,63.781-11.297,85.922-33.938c22.188-22.563,32.953-49.75,32.484-81.531c-0.297-20.156-6.891-35.578-19.688-46.484
	c-12.703-10.844-32.078-16.281-57.938-16.281H370.742L334.93,349.688H490.555z"/>
<path fill="#FFB773" stroke="#231F20" stroke-width="4" stroke-miterlimit="10" d="M116.695,871.797
	c-5.109-5.813-6.969-13.406-5.422-22.656L270.148,34.625c1.484-9.172,5.969-16.953,13.328-23.219C290.914,5.125,299.289,2,308.43,2
	h370.047c89.5,0,159.813,17.406,211.016,52.109c51.156,34.719,77.344,83.391,78.438,146.172c0.219,14.266-1.547,31.859-5.438,52.688
	c-8.344,41.828-26.031,77.047-52.688,105.469c-26.641,28.453-54.953,49.391-84.766,62.719
	c26.109,13.469,47.422,33.063,63.688,59.063c16.359,25.859,24.813,55.641,25.422,89.109c0.172,9.125-1.25,23.859-4.266,43.859
	c-16.813,87.109-54.469,153.359-112.516,199c-58.219,45.578-139.578,68.375-244.047,68.375H138.086
	C128.945,880.563,121.82,877.609,116.695,871.797z M541.555,711.156c31.844,0,59.047-9.625,81.672-28.922
	C645.852,663,659.493,640,664.071,613.188c2.313-10,3.391-19.203,3.266-27.609c-0.391-21.672-7.844-39.047-22.266-52.047
	c-14.469-12.984-35.953-19.484-64.313-19.484H412.742l-39.219,197.109H541.555z M599.18,349.688
	c35.203,0,63.875-11.297,85.953-33.938c22.266-22.563,33.109-49.75,32.5-81.531c-0.328-20.156-6.844-35.578-19.625-46.484
	c-12.797-10.844-32.094-16.281-57.953-16.281H479.461l-35.813,178.234H599.18z"/>
</svg>
