<?xml version="1.0" encoding="utf-8"?>
<!-- Generator: Adobe Illustrator 15.1.0, SVG Export Plug-In  -->
<!DOCTYPE svg PUBLIC "-//W3C//DTD SVG 1.1//EN" "http://www.w3.org/Graphics/SVG/1.1/DTD/svg11.dtd" [
	<!ENTITY ns_flows "http://ns.adobe.com/Flows/1.0/">
]>
<svg version="1.1"
	 xmlns="http://www.w3.org/2000/svg" xmlns:xlink="http://www.w3.org/1999/xlink" xmlns:a="http://ns.adobe.com/AdobeSVGViewerExtensions/3.0/"
	 x="0px" y="0px" width="1000px" height="1000px" viewBox="-84.609 -42.459 1000 1000"
	 enable-background="new -84.609 -42.459 1000 1000" xml:space="preserve">
<defs>
</defs>
<g>
	<path fill="#FFFFFF" d="M32.334,912.906c-10.055,0-18.031-3.272-23.705-9.727c-5.697-6.429-7.737-14.845-6.057-25.006
		L167.849,36.005c1.669-9.892,6.339-18.154,13.868-24.503C189.34,5.193,198.21,2,208.092,2h179.984
		c10.029,0,17.993,3.267,23.672,9.708c5.681,6.507,7.72,14.917,6.067,25.005L286.25,705.563h386.037
		c10.141,0,18.112,3.498,23.695,10.398c5.718,6.958,7.306,15.585,4.711,25.632l-26.066,137.28
		c-1.6,9.979-6.496,18.262-14.545,24.562c-8.031,6.285-17.115,9.472-26.998,9.472H32.334z"/>
	<path fill="#231F20" d="M388.077,4c9.477,0,16.883,3.031,22.172,9.031c5.32,6.094,7.148,13.875,5.594,23.359L283.819,707.563
		h388.468c9.469,0,16.906,3.188,22.141,9.656c5.328,6.484,6.766,14.5,4.313,23.938L672.662,878.5
		c-1.531,9.547-6.188,17.391-13.813,23.359c-7.688,6.016-16.281,9.047-25.766,9.047H32.334c-9.555,0-16.914-3.031-22.203-9.047
		c-5.289-5.969-7.164-13.813-5.586-23.359L169.811,36.391c1.602-9.484,5.969-17.266,13.195-23.359c7.25-6,15.609-9.031,25.086-9.031
		H388.077 M388.077,0H208.092c-10.36,0-19.659,3.348-27.636,9.95c-7.916,6.675-12.812,15.32-14.58,25.719L0.62,877.729l-0.021,0.118
		c-1.783,10.785,0.417,19.756,6.539,26.665c6.061,6.893,14.542,10.394,25.197,10.394h600.75c10.34,0,19.839-3.33,28.23-9.896
		c8.443-6.609,13.587-15.296,15.288-25.819l26.043-137.159c2.741-10.673,1.017-19.875-5.127-27.352
		c-5.963-7.369-14.458-11.117-25.231-11.117H288.682l131.084-666.4l0.023-0.125c1.754-10.705-0.442-19.667-6.528-26.637
		C407.174,3.494,398.705,0,388.077,0L388.077,0z"/>
</g>
<g>
	<path fill="#FFB773" d="M144.538,912.906c-10.063,0-18.04-3.272-23.706-9.728c-5.69-6.488-7.719-14.902-6.032-25.008
		L280.083,36.005c1.633-9.869,6.306-18.133,13.878-24.504C301.532,5.194,310.405,2,320.342,2h179.945
		c10.026,0,17.986,3.267,23.657,9.71c5.666,6.499,7.727,14.905,6.131,24.993l-131.58,618.226l427.435,3.978l1.947,2.37
		L786.862,878.87c-1.663,10.06-6.577,18.341-14.599,24.569c-7.992,6.279-17.082,9.467-27.008,9.467H144.538z"/>
	<path fill="#231F20" d="M500.287,4c9.516,0,16.875,3.031,22.156,9.031c5.313,6.094,7.156,13.875,5.656,23.359L396.03,656.906
		l429.882,4L784.896,878.5c-1.578,9.547-6.172,17.391-13.859,23.359c-7.656,6.016-16.25,9.047-25.781,9.047H144.538
		c-9.531,0-16.922-3.031-22.203-9.047c-5.234-5.969-7.156-13.813-5.563-23.359L282.045,36.391
		c1.57-9.484,5.961-17.266,13.203-23.359C302.452,7.031,310.85,4,320.342,4H500.287 M500.287,0H320.342
		c-10.417,0-19.721,3.35-27.654,9.958c-7.947,6.687-12.847,15.334-14.579,25.718L112.847,877.729l-0.02,0.112
		c-1.791,10.727,0.396,19.694,6.5,26.655c6.064,6.907,14.546,10.409,25.21,10.409h600.718c10.385,0,19.891-3.331,28.253-9.901
		c8.403-6.524,13.565-15.213,15.327-25.812l41.007-217.546l-3.894-4.741l-424.988-3.954L532.012,37.223l0.039-0.208
		c1.692-10.701-0.525-19.654-6.592-26.613C519.379,3.495,510.914,0,500.287,0L500.287,0z"/>
</g>
</svg>
