<?xml version="1.0" encoding="utf-8"?>
<!-- Generator: Adobe Illustrator 15.1.0, SVG Export Plug-In  -->
<!DOCTYPE svg PUBLIC "-//W3C//DTD SVG 1.1//EN" "http://www.w3.org/Graphics/SVG/1.1/DTD/svg11.dtd" [
	<!ENTITY ns_flows "http://ns.adobe.com/Flows/1.0/">
]>
<svg version="1.1"
	 xmlns="http://www.w3.org/2000/svg" xmlns:xlink="http://www.w3.org/1999/xlink" xmlns:a="http://ns.adobe.com/AdobeSVGViewerExtensions/3.0/"
	 x="0px" y="0px" width="1000px" height="1000px" viewBox="-32.125 -58.852 1000 1000"
	 enable-background="new -32.125 -58.852 1000 1000" xml:space="preserve">
<defs>
</defs>
<path fill="#FFFFFF" stroke="#231F20" stroke-width="4" stroke-miterlimit="10" d="M111.484,871.172
	c-4.781-6.281-6.344-13.547-4.578-22.016l61.156-267.266L3.141,42.188c-0.766-2.531-1.234-5.891-1.125-10.078
	c0.125-8.313,3.453-15.453,9.813-21.344C18.188,4.938,25.938,2,35.156,2h155.531c11.781,0,20.625,2.938,26.828,8.766
	c6.188,5.891,10.063,12.156,11.609,18.875l101.078,313.719l245.11-313.719c4.266-6.719,10.938-12.984,19.766-18.875
	C604,4.938,614.235,2,625.954,2h178.125c7.531,0,13.125,1.906,16.828,5.625c3.656,3.781,5.484,8.578,5.422,14.438
	c-0.156,6.719-2.781,13.375-7.906,20.125L403.906,581.891l-61.141,267.266c-1.891,9.219-6.688,16.828-14.281,22.625
	c-7.563,5.828-15.969,8.781-25.188,8.781H132.719C123.422,880.563,116.438,877.438,111.484,871.172z"/>
<path fill="#FFB773" stroke="#231F20" stroke-width="4" stroke-miterlimit="10" d="M218.531,871.172
	c-4.953-6.281-6.438-13.547-4.641-22.016l61.141-267.266l-165-539.703c-0.766-2.531-1.094-5.891-1.094-10.078
	c0.188-8.313,3.422-15.453,9.859-21.344C125.156,4.938,132.969,2,142.125,2h155.609c11.625,0,20.625,2.938,26.813,8.766
	c6.203,5.891,9.938,12.156,11.469,18.875l101.219,313.719L682.297,29.641c4.344-6.719,10.844-12.984,19.797-18.875
	C710.954,4.938,721.172,2,732.969,2h178.094c7.5,0,13.172,1.859,16.891,5.625c3.563,3.781,5.422,8.578,5.344,14.438
	c-0.156,6.719-2.703,13.375-7.828,20.125L510.844,581.891l-61.141,267.266c-1.844,9.219-6.563,16.828-14.172,22.625
	c-7.594,5.828-16.141,8.781-25.266,8.781H239.703C230.484,880.563,223.422,877.438,218.531,871.172z"/>
</svg>
